<svg width="30" height="45" viewBox="0 0 30 45" fill="none" xmlns="http://www.w3.org/2000/svg">
<path d="M25.911 20.288H1.1284L2.28492 38.9095C2.35101 40.0761 2.55588 42.614 2.84666 43.4328C3.13744 44.2516 4.26753 44.8195 4.99448 44.9185L19.1371 44.9846C20.1835 45.0396 22.5273 44.978 23.5319 44.2912C24.5364 43.6045 24.9087 41.2097 24.8536 40.0981L25.911 20.288Z" fill="#D9262C"/>
<path d="M26.5621 15.2983C18.1148 12.2936 1.16013 6.25571 0.920058 6.14194C-0.228247 5.72212 0.461739 4.57593 0.948087 3.31219C1.375 2.20289 1.90341 2.11073 2.24572 2.23296L9.77651 4.92209C10.4785 3.74235 11.4918 3.36096 12.0209 3.54987L18.6803 5.92786C20.3407 6.4857 20.3945 7.90726 20.368 8.66911L26.903 11.0027C28.8013 11.6805 28.4258 12.1424 27.9196 13.8548C27.5146 15.2248 26.8458 15.388 26.5621 15.2983Z" fill="#D9262C"/>
</svg>
