<svg width="31" height="46" viewBox="0 0 31 46" fill="none" xmlns="http://www.w3.org/2000/svg">
<path d="M26.9108 20.4534H2.12827L3.28479 39.075C3.35088 40.2416 3.55575 42.7795 3.84653 43.5983C4.13731 44.4171 5.2674 44.985 5.99435 45.084L20.1369 45.1501C21.1833 45.2051 23.5272 45.1435 24.5317 44.4567C25.5362 43.77 25.9085 41.3751 25.8534 40.2636L26.9108 20.4534Z" fill="#FDC884"/>
<path d="M28.1995 18.3403C19.2337 18.3513 1.2361 18.3667 0.971751 18.3403C-0.250857 18.3311 0.0134932 17.0196 0.046535 15.6659C0.0755387 14.4777 0.542186 14.2132 0.905664 14.2132H8.90217C9.16652 12.8661 9.9926 12.1661 10.5543 12.1661H17.6256C19.3769 12.1331 19.9056 13.4538 20.1369 14.1802H27.076C29.0917 14.1802 28.8934 14.7415 28.9926 16.5244C29.0719 17.9507 28.4969 18.3293 28.1995 18.3403Z" fill="#FDC884"/>
</svg>
