<svg width="37" height="35" viewBox="0 0 37 35" fill="none" xmlns="http://www.w3.org/2000/svg">
<path d="M12.4521 1.3584C12.8515 1.22296 13.0731 1.23817 13.2168 1.2793C13.3704 1.32333 13.6 1.44453 13.9268 1.81055V1.81152C14.6263 2.5969 15.5298 3.21622 16.5156 3.58594V3.58691C16.8008 3.69409 17.0739 3.78955 17.4316 3.83887C17.7475 3.88241 18.0997 3.88477 18.5391 3.88477V3.88379C18.9844 3.88415 19.3443 3.88429 19.6719 3.83594C20.0376 3.78194 20.3259 3.67514 20.6279 3.56055H20.6289C21.6152 3.18492 22.4756 2.58044 23.1836 1.77539L23.1846 1.77637C23.4261 1.50222 23.5751 1.39887 23.6719 1.35156C23.7344 1.32105 23.8184 1.29229 23.9648 1.28027L24.1338 1.27441C24.3506 1.27539 24.4043 1.28551 24.4648 1.30078C24.5673 1.32665 24.7246 1.38227 25.1289 1.5498C26.3959 2.0753 27.4212 2.64076 28.5449 3.44629L29.0332 3.80664C29.6563 4.2792 29.8235 4.539 29.8779 4.68555C29.9148 4.78511 29.9516 4.96921 29.835 5.4209L29.7754 5.63086C29.3011 7.17356 29.3739 8.63364 30.0137 10.0645L30.1494 10.3506C30.9686 11.9826 32.6663 13.2027 34.4971 13.5674L34.498 13.5684C34.8133 13.6309 34.9735 13.6878 35.0645 13.7324C35.0999 13.7499 35.1303 13.7678 35.1602 13.791L35.252 13.8799C35.3547 13.9971 35.4883 14.2134 35.5898 14.7529C35.6954 15.3133 35.7492 16.1248 35.75 17.3574C35.7516 19.2488 35.6107 20.1804 35.3779 20.6729C35.2842 20.871 35.1872 20.9705 35.0762 21.043C34.9445 21.1289 34.7251 21.2211 34.3291 21.2949C33.0501 21.5333 32.0185 22.0839 31.0898 23.0127C30.2623 23.8394 29.6964 24.801 29.4521 25.8955C29.2396 26.848 29.2848 27.8369 29.54 28.8428L29.6621 29.2744C29.7902 29.687 29.8251 29.8878 29.8311 30.0049C29.833 30.0429 29.8323 30.0767 29.8252 30.1172L29.7803 30.2686C29.7171 30.4343 29.667 30.5159 29.5859 30.6084C29.4791 30.7303 29.2937 30.897 28.9014 31.1924C27.9024 31.9443 26.9633 32.514 25.7705 33.0889C25.2858 33.3223 25.0482 33.4276 24.8896 33.4834C24.8341 33.5029 24.7917 33.5157 24.7471 33.5244L24.5898 33.543C24.2228 33.5691 24.1889 33.5324 24.1729 33.5244C24.0711 33.4736 23.8797 33.3333 23.3672 32.8154C22.6989 32.1401 22.2557 31.7528 21.6611 31.4463L21.6602 31.4453C20.4765 30.8363 19.1979 30.596 17.9277 30.792C17.1045 30.9193 16.3752 31.1455 15.6729 31.5732C14.9854 31.992 14.3922 32.5628 13.7832 33.2783V33.2793C13.6353 33.4533 13.5214 33.5466 13.4463 33.5957L13.3857 33.6309C13.1258 33.755 13.0416 33.7552 12.959 33.748C12.799 33.7342 12.5187 33.6605 11.8838 33.3896C10.5163 32.806 9.10435 31.9735 8.03613 31.127C7.64349 30.8156 7.51782 30.7039 7.45117 30.6309C7.43839 30.6168 7.42613 30.6049 7.4043 30.5693L7.29785 30.3672C7.28295 30.3353 7.24526 30.2171 7.23828 30.0332C7.23125 29.8479 7.2608 29.7164 7.27832 29.6709V29.6699C7.6464 28.7115 7.85968 27.8097 7.8457 26.8994C7.83145 25.9761 7.58456 25.1323 7.16113 24.2881C6.30667 22.5848 4.73621 21.4842 2.83301 21.1182L2.44727 21.0547C2.31088 21.0359 2.10689 20.9621 1.90332 20.8262C1.74626 20.7213 1.64826 20.6193 1.59766 20.5527L1.5625 20.499C1.55965 20.491 1.513 20.3709 1.45605 20.0781C1.40199 19.8001 1.35351 19.4453 1.31738 19.042C1.24493 18.233 1.22691 17.3004 1.2832 16.5117V16.5107C1.33069 15.8418 1.39757 15.255 1.47266 14.7969C1.51023 14.5677 1.54822 14.3809 1.58398 14.2383C1.60164 14.1679 1.61695 14.1137 1.62988 14.0742C1.63984 14.0439 1.64669 14.0277 1.64844 14.0234C1.70851 13.895 1.93236 13.6587 2.08887 13.5723C2.09417 13.5703 2.10126 13.5676 2.11035 13.5645C2.14862 13.5511 2.20293 13.5335 2.27051 13.5146C2.4067 13.4767 2.56361 13.4399 2.7002 13.416C4.01102 13.1884 5.1771 12.6594 6.06836 11.7979L6.06738 11.7969C6.71219 11.1742 7.36522 10.1488 7.6416 9.30566H7.64258C7.73687 9.01772 7.81015 8.75111 7.84961 8.41113C7.88544 8.10212 7.8894 7.76113 7.88672 7.33301C7.88407 6.90101 7.87695 6.55631 7.83496 6.24512C7.78808 5.89795 7.70379 5.62923 7.60059 5.34277H7.59961C7.37557 4.72219 7.48134 4.37176 7.63965 4.15918C7.62769 4.175 7.66422 4.13141 7.79785 4.0166C7.92588 3.90661 8.09633 3.77025 8.2959 3.62012C8.69625 3.31893 9.173 2.99144 9.58398 2.74219H9.58496C10.2837 2.31813 11.4512 1.74758 12.1729 1.46191L12.4521 1.3584Z" fill="#215322" stroke="#D2B25F" stroke-width="2.5"/>
<path d="M18.5 11C21.8137 11 24.5 13.6863 24.5 17C24.5 20.3137 21.8137 23 18.5 23C15.1863 23 12.5 20.3137 12.5 17C12.5 13.6863 15.1863 11 18.5 11Z" fill="#D2B25F" stroke="#487E40" stroke-width="2"/>
</svg>
