<svg width="16" height="19" viewBox="0 0 16 19" fill="none" xmlns="http://www.w3.org/2000/svg">
<path fill-rule="evenodd" clip-rule="evenodd" d="M1.13281 11.2562C0.509275 11.2562 0.00307655 11.7616 0.00292969 12.3851V14.6205H0C9.34601e-05 16.6808 1.67016 18.3508 3.73047 18.351H12.2686C14.3288 18.3507 15.9989 16.6808 15.999 14.6205H15.998V12.3715C15.998 11.7558 15.4927 11.2563 14.8691 11.2562C14.2531 11.2562 13.7523 11.7437 13.7402 12.349C13.7465 12.4025 13.75 12.4569 13.75 12.5121V14.6224C13.75 15.3882 13.1291 16.0092 12.3633 16.0092H3.65332C2.88764 16.009 2.2666 15.3882 2.2666 14.6224V14.6205H2.26172V12.3851C2.26157 11.7617 1.7562 11.2564 1.13281 11.2562ZM8.74902 0.332406C8.30577 -0.110792 7.58777 -0.110812 7.14453 0.332406C7.13429 0.342671 7.12501 0.354088 7.11523 0.364632L2.56348 4.91639C2.12041 5.35964 2.12033 6.07768 2.56348 6.52088C3.00668 6.96403 3.72472 6.96395 4.16797 6.52088L6.80566 3.88319V11.4232C6.80573 12.0499 7.31376 12.5578 7.94043 12.558C8.56724 12.558 9.07513 12.05 9.0752 11.4232V3.86756L11.709 6.50135C12.1522 6.94454 12.8702 6.94444 13.3135 6.50135C13.7567 6.0581 13.7567 5.3401 13.3135 4.89686L8.74902 0.332406Z" fill="#16004C"/>
</svg>
