<svg width="288" height="287" viewBox="0 0 288 287" fill="none" xmlns="http://www.w3.org/2000/svg">
<path d="M260.843 217.988C260.315 217.988 253.753 216.836 252.77 215.905C252.608 215.752 252.331 215.769 252.152 215.638C251.228 214.96 251.089 213.387 250.515 212.104C250.044 211.054 250.028 209.937 249.894 208.875C249.747 207.713 249.497 206.488 249.363 204.545C249.234 202.68 249.667 200.035 250.289 198.749C250.98 197.32 251.789 196.14 252.368 195.078C252.99 193.935 254.002 192.956 254.931 191.674C255.717 190.588 256.565 189.682 257.408 188.754C258.259 187.816 259.221 187.557 259.663 187.556C260.693 187.553 260.901 189.672 261.433 190.781C261.995 191.953 263.729 192.065 267.435 192.068C269.124 192.069 270.097 191.184 271.072 190.522C272.022 189.877 271.96 186.169 271.696 183.934C271.555 182.739 270.989 181.547 270.855 180.485C270.716 179.387 270.193 178.363 270.059 176.2C270.028 175.706 269.927 175.445 269.882 175.134C269.837 174.824 269.837 174.474 270.406 174.293C273.402 173.343 274.783 175.169 276.375 176.23C279.032 178.002 279.914 179.679 280.757 180.962C281.588 182.228 282.217 183.394 282.836 184.588C283.821 186.491 284.34 188.17 284.474 189.673C284.595 191.031 285.136 192.415 285.27 193.478C285.419 194.659 285.757 196.215 285.977 198.29C286.534 203.532 285.582 204.62 284.787 207.224C284.364 208.61 283.99 209.662 283.592 210.768C283.115 212.092 282.838 213.286 282.31 214.439C281.779 215.6 280.721 216.385 279.658 216.873C278.56 217.378 277.537 217.977 276.254 218.201C275.121 218.399 274.088 218.863 267.96 218.91C265.587 218.928 264.005 218.513 262.943 218.379C262.413 218.248 261.792 218.07 260.342 217.937" stroke="#CE7936" stroke-width="3" stroke-linecap="round"/>
<path d="M164.749 172.314C164.749 172.842 164.061 174.903 164.014 178.829C163.994 180.506 164.676 181.711 164.81 183.833C164.918 185.544 165.472 186.578 165.606 188.081C165.735 189.524 166.268 191.088 166.446 192.635C166.614 194.099 167.33 195.068 167.728 196.351C167.828 196.675 168.035 196.925 168.126 197.192C168.873 199.402 175.109 198.167 176.215 198.565C177.545 199.043 178.818 200.9 179.888 202.233C180.687 203.23 181.302 204.355 182.054 205.461C182.945 206.772 183.515 207.804 183.825 208.867C184.125 209.895 184.311 210.988 184.445 212.051C184.613 213.384 184.841 215.143 184.888 218.058C184.911 219.514 184.226 220.54 183.607 221.602C182.965 222.706 182.368 223.724 181.75 225.007C181.594 225.33 181.397 225.581 181.395 225.848C181.383 227.001 182.894 227.704 183.382 228.766C183.887 229.865 184.486 230.888 185.282 231.907C186.295 233.203 188.11 233.631 189.173 234.296C190.197 234.936 191.119 235.929 192.09 236.86C193.624 238.332 195.274 236.29 196.337 235.936C197.583 235.52 198.989 234.963 200.403 234.653C201.35 234.445 202.263 234.52 204.676 234.387C214.631 233.84 215.704 234.608 216.811 235.223C218.318 236.062 219.154 237.256 220.129 237.878C221.039 238.459 221.632 239.644 222.561 240.486C223.551 241.385 224.02 242.827 225.125 244.154C226.104 245.33 226.233 246.807 226.587 247.87C226.941 248.933 227.119 250.867 228.958 252.99C235.293 260.303 239.849 253.271 241.176 252.96C242.562 252.636 243.829 252.65 245.376 252.43C245.775 252.373 246.127 252.385 246.526 252.034C248.635 250.185 249.141 248.41 249.625 247.347C250.211 246.063 250.818 244.255 251.306 242.574C251.803 240.865 252.41 239.479 252.855 238.062C253.266 236.75 253.737 235.499 254.181 234.126C254.539 233.02 255.063 231.96 255.552 230.897C256.075 229.759 257.796 228.25 259.043 226.917C260.134 225.751 261.606 225.677 263.638 225.63C265.425 225.589 266.648 226.027 267.931 226.865C269.085 227.62 269.481 229.03 270.1 230.533C270.598 231.744 271.073 232.745 271.428 233.895C272.312 236.768 271.519 241.145 271.165 242.298C270.827 243.398 270.192 244.419 269.574 245.482C268.932 246.586 267.985 247.954 267.23 249.197C266.641 250.167 266.303 251.493 265.858 252.69C265.231 254.379 264.445 256.359 263.737 257.422C263.054 258.446 262.588 259.543 261.88 260.606C261.171 261.669 260.641 262.727 260.066 263.79C259.526 264.788 259.314 265.911 259.18 267.458C259.058 268.862 258.693 270.241 258.429 271.528C258.161 272.833 257.547 274.046 256.178 276.3C255.353 277.659 254.188 278.822 253.081 279.799C251.163 281.492 248.351 282.717 247.244 282.985C245.625 283.377 244.105 284.134 240.62 284.312C237.545 284.469 233.317 284.93 231.944 285.064C231.357 285.121 226.896 285.286 220.265 285.198C216.211 285.144 213.428 284.49 211.47 284.269C210.142 284.12 208.732 283.784 206.521 282.902C203.555 281.718 201.918 281.306 200.547 280.998C198.663 280.575 196.967 279.629 195.594 279.228C194.427 278.888 193.162 278.652 191.659 278.168C190.468 277.784 189.097 276.975 187.854 276.091C186.916 275.423 185.733 275.118 184.67 274.586C183.482 273.991 182.549 273.261 181.663 272.245C180.57 270.991 179.015 270.082 177.992 268.927C177.803 268.713 177.508 268.66 177.241 268.659C176.146 268.653 174.769 269.451 173.483 269.895C172.243 270.323 171.14 270.337 169.244 270.647C165.09 271.328 163.801 270.252 162.428 269.678C161.265 269.191 159.821 268.75 158.448 268.086C157.358 267.558 156.281 266.893 155.219 266.184C154.156 265.476 153.272 264.595 152.52 263.532C151.704 262.38 150.884 261.411 150.22 260.349C149.618 259.386 149.292 257.877 148.981 256.59C148.228 255.306 147.876 254.247 147.742 253.185C147.698 252.918 147.61 252.655 147.52 252.385" stroke="#CE7936" stroke-width="3" stroke-linecap="round"/>
<path d="M166.249 172.314C165.808 171.786 164.591 172.526 162.388 170.229C161.286 169.082 159.73 168.986 158.404 168.542C157.076 168.097 156.016 167.569 154.557 167.698C154.176 167.732 154.068 168.355 154.022 168.712C153.838 170.121 154.328 171.719 154.462 173.002C154.742 175.68 154.859 180.12 154.993 181.933C155.023 182.336 155.124 182.598 155.169 188.994C155.215 195.389 155.215 207.91 155.171 214.623C155.115 223.106 154.774 225.05 154.64 226.113C154.472 227.446 154.243 229.03 154.109 230.577C153.973 232.151 153.272 234.592 152.608 236.416C152.214 237.497 151.946 239.283 151.634 240.794C151.294 242.442 150.179 244.059 149.82 245.482C149.531 246.634 148.937 247.603 148.583 248.666C148.236 249.705 147.966 250.963 147.521 252.115C147.118 253.161 146.639 254.412 145.71 255.785C144.834 257.08 144.076 258.747 143.013 259.854C141.688 261.234 140.186 262.727 139.254 263.746C138.316 264.771 136.737 265.646 135.364 266.665C134.288 267.463 133.198 267.949 132.135 268.523C131.136 269.063 129.313 269.451 127.89 270.115C126.61 270.713 124.972 271.133 123.91 271.487C122.847 271.841 121.788 272.019 120.682 272.46C120.062 272.706 119.31 272.725 118.78 272.859C117.883 273.085 119.305 270.698 119.659 269.635C120.006 268.596 120.101 267.339 120.147 265.085C120.176 263.692 119.576 262.473 118.911 260.969C118.405 259.825 117.893 258.758 117.539 257.652C117.125 256.358 116.392 254.783 115.903 253.319C115.328 251.591 114.8 250.182 114.355 248.939C113.978 247.885 113.823 246.643 113.559 245.49C113.315 244.422 113.117 243.019 112.983 241.115C112.955 240.711 112.852 240.45 112.807 237.25C112.762 234.05 112.762 227.921 112.806 224.545C112.864 220.007 113.292 218.783 113.513 217.543C113.792 215.969 113.998 214.538 114.396 213.298C114.973 211.499 115.59 209.937 116.121 208.875C116.61 207.895 116.917 206.578 117.315 205.425C117.735 204.21 118.244 203.039 118.598 201.976C118.952 200.913 119.305 199.855 119.703 198.792C120.127 197.66 120.632 196.671 121.206 195.608C121.746 194.61 122.133 193.487 122.621 192.424C123.158 191.255 123.725 190.038 124.39 188.975" stroke="#CE7936" stroke-width="3" stroke-linecap="round"/>
<path d="M155.48 198.258C155.743 197.905 156.801 197.552 158.172 197.198C161.474 196.931 165.825 196.843 166.355 196.711C166.621 196.666 166.884 196.666 167.154 196.666" stroke="#CE7936" stroke-width="3" stroke-linecap="round"/>
<path d="M155.749 213.911C156.099 213.47 158.478 212.941 163.156 212.938C165.6 212.937 166.794 213.556 167.99 213.911C169.268 214.289 170.333 214.443 171.483 214.663C172.968 214.947 174.748 214.973 176.128 215.765C177.258 216.414 177.412 218.062 177.766 219.215C178.095 220.285 178.649 221.686 179.093 222.929C179.447 223.992 179.975 224.875 180.55 225.537C182.249 227.496 181.659 225.778 181.749 226.314" stroke="#CE7936" stroke-width="3" stroke-linecap="round"/>
<path d="M151.235 245.486C152.026 246.012 153.442 247.604 155.294 249.635C157.273 251.805 159.455 251.233 161.178 251.411C163.373 251.638 166.528 252.029 169.795 252.076C171.95 252.106 173.687 251.589 176.696 250.928C178.358 250.563 179.62 250.352 180.903 249.514C181.985 248.807 183.244 248.145 184.792 246.334C186.435 244.413 187.845 244.075 188.908 243.366C190.058 242.6 191.029 241.421 192.268 240.449C193.154 239.386 193.863 238.59 194.259 238.017C194.481 237.707 194.744 237.357 195.014 236.73" stroke="#CE7936" stroke-width="3" stroke-linecap="round"/>
<path d="M177.237 268.835C177.938 268.132 180.761 266.718 182.715 265.875C184.251 265.213 185.457 264.149 186.827 263.091C188.178 262.048 189.437 262.027 190.5 261.452C191.528 260.896 193.496 259.909 195.01 259.197C196.212 258.631 197.131 257.872 198.238 257.427C199.755 256.818 201.727 255.839 203.41 255.305C204.56 254.94 205.622 254.422 206.728 253.758C207.953 253.022 209.186 252.479 210.249 251.814C211.24 251.194 212.696 251.148 214.113 251.146C215.658 251.143 216.766 252.294 218.049 252.649C219.17 252.958 220.565 253.356 224.892 253.402C225.79 253.358 226.052 253.271 226.538 253.226C227.023 253.181 227.724 253.181 228.446 253.181" stroke="#CE7936" stroke-width="3" stroke-linecap="round"/>
<path d="M246.249 252.314C247.037 252.049 249.667 253 250.95 253.753C252.15 254.456 253.116 255.123 254.796 256.756C255.916 257.846 256.39 259.278 257.275 260.561C257.973 261.572 258.338 262.727 258.692 263.79C258.781 264.057 259.204 265.46 259.249 265.814" stroke="#CE7936" stroke-width="3" stroke-linecap="round"/>
<path d="M118.599 160.846C118.159 161.374 117.453 162.958 117.052 164.82C116.679 166.556 116.742 170.106 117.006 172.559C117.179 174.162 118.154 175.344 118.422 176.54C118.737 177.947 119.39 180.024 119.925 181.538C120.39 182.855 120.897 184.455 121.692 185.605C122.571 186.879 123.37 187.729 124.653 188.834C125.546 189.604 126.819 189.587 127.882 189.811C129.112 190.07 130.534 189.857 132.962 189.723C134.544 189.636 135.75 188.886 136.903 188.222C137.887 187.655 139.55 187.119 140.663 185.88C141.521 184.924 143.875 182.534 145.439 180.442C146.549 178.957 147.34 177.657 148.048 176.505C148.733 175.391 149.197 173.943 149.642 172.79C149.908 171.64 149.996 170.666 150.128 170.093C150.174 169.782 150.249 168.175 150.249 167.814" stroke="#CE7936" stroke-width="3" stroke-linecap="round"/>
<path d="M164.544 163.314C164.456 163.842 164.236 165.431 164.544 167.209C164.785 168.604 165.207 169.597 165.649 170.747C166.378 172.647 168.386 173.667 169.582 174.375C170.844 175.122 175.427 175.439 178.999 175.175C180.543 175.061 181.742 174.643 182.805 174.379C183.892 174.109 184.926 173.847 185.989 173.583C187.157 173.293 188.2 172.526 189.393 171.507C190.394 170.652 190.679 169.342 191.297 168.279C191.916 167.215 192.446 166.158 192.89 165.051C193.396 163.791 193.863 162.709 193.865 155.876C193.866 153.363 192.807 152.361 192.054 151.342C191.302 150.323 190.153 149.707 189.137 148.821C187.839 147.689 187.322 146.961 186.793 146.916C185.59 146.814 184.496 148.545 183.344 149.522C182.148 150.534 180.872 151.904 179.629 153.147C178.609 154.167 177.508 154.828 176.489 155.581C175.427 156.365 174.589 157.482 173.57 158.234C172.508 159.018 171.67 160.135 170.564 160.623C169.276 161.191 168.046 161.727 166.893 162.171C166.626 162.26 166.364 162.348 166.097 162.48C165.831 162.613 165.568 162.788 165.032 162.969" stroke="#CE7936" stroke-width="3" stroke-linecap="round"/>
<path d="M165.297 172.521C166.178 172.783 167.59 173.842 169.711 175.873C171.523 177.608 173.071 179.233 173.874 180.433C174.658 181.604 175.82 182.598 176.659 183.66C177.465 184.683 178.118 185.782 179.971 187.682C181.048 188.785 182.358 190.462 183.734 191.886C184.723 192.91 185.988 194.097 186.83 195.246C187.74 196.488 189.787 197.456 191.735 198.255C193.168 198.843 194.388 199.754 195.584 200.423C196.95 201.185 198.543 202.232 200.006 203.031C201.121 203.639 202.698 204.53 204.075 205.375C205.386 206.18 207.124 206.918 208.32 207.63C209.619 208.404 210.663 208.956 211.857 209.708C213.716 210.879 215.964 211.168 217.298 211.743C218.34 212.192 219.944 212.845 221.321 213.424C222.768 214.031 225.071 214.177 226.716 214.398C228.433 214.627 229.502 214.883 230.608 215.237C231.981 215.677 233.041 216.56 233.749 217.623C234.102 218.152 234.458 218.685 234.767 218.864C235.869 219.503 234.904 216.571 234.549 215.464C234.143 214.195 233.842 213.121 233.532 212.015C233.183 210.772 233.046 209.672 232.692 208.522C232.14 206.73 232.25 204.896 232.116 203.173C232.02 201.939 231.454 200.916 231.056 199.546C230.586 197.926 229.862 196.936 229.244 195.83C228.507 194.511 227.74 193.487 227.078 192.468C226.327 191.313 224.826 190.128 223.63 188.799C222.586 187.639 221.112 187.204 219.959 186.629C218.913 186.108 217.838 185.437 216.555 184.552C215.543 183.854 214.388 183.139 213.326 182.604C212.195 182.035 210.939 181.192 209.876 180.483C208.67 179.679 207.49 178.538 206.427 177.874C205.302 177.17 203.865 176.15 202.713 175.442C201.664 174.798 200.591 174.293 199.529 173.805C198.39 173.282 197.407 172.611 196.124 171.949C195.017 171.106 193.958 170.578 192.895 169.87C192.629 169.692 192.366 169.517 191.565 169.071" stroke="#CE7936" stroke-width="3" stroke-linecap="round"/>
<path d="M119.749 182.314C119.133 182.402 117.204 183.479 115.199 184.854C114.169 185.561 112.507 186.137 110.999 187.197C109.068 188.554 107.991 189.056 106.841 190.072C105.44 191.31 104.277 191.709 102.554 192.594C101.387 193.193 100.472 194.007 99.2794 194.849C97.8852 195.834 96.3169 196.925 95.4745 197.944C94.6333 198.962 93.2232 199.494 90.9254 201.477C89.3296 202.855 88.0917 203.914 87.0291 204.623C85.9818 205.321 85.1731 206.127 84.1105 206.745C82.9628 207.413 81.6389 208.425 80.3083 208.913C78.58 209.547 76.863 210.372 75.2684 210.77C73.4602 211.222 72.2622 211.874 70.2284 212.759C69.0179 213.286 67.9267 213.556 66.6889 213.734C64.0587 214.112 61.649 214.973 60.4524 215.237C59.0877 215.538 57.669 215.854 56.0333 216.122C53.3334 216.564 51.7416 216.74 50.4587 216.874C49.3351 216.992 47.7669 217.446 45.509 217.67C43.2566 217.894 40.4226 218.067 33.9844 218.113C31.7168 218.13 30.5152 217.011 29.365 216.259C27.8441 215.264 26.8006 214.358 25.738 213.605C24.5854 212.79 23.4415 211.619 22.2449 210.907C20.9049 210.109 20.2523 209.404 20.0745 208.875C19.7074 207.781 22.099 207.194 23.342 206.265C24.4436 205.442 25.7287 204.806 26.8351 204.097C28.3353 203.137 30.4993 201.977 31.9639 201.091C33.7827 199.991 34.7499 198.969 35.8125 198.216C36.9193 197.433 38.109 196.496 39.3056 195.607C40.6154 194.634 41.9138 193.662 43.1966 192.91C44.7077 192.024 46.0688 190.478 47.2655 189.593C48.4119 188.745 49.7835 188.09 51.4205 187.161C52.8876 186.329 54.2941 185.262 56.1514 184.023C57.5063 183.119 58.6295 182.518 59.6922 181.81C60.7548 181.101 61.9886 180.22 63.1415 179.642C64.2217 179.1 65.2628 178.713 66.3254 178.095C67.3892 177.476 68.4467 176.946 69.5094 176.238C69.776 176.06 70.0387 175.885 70.3054 175.663C70.572 175.442 70.8347 175.179 71.1053 174.908" stroke="#CE7936" stroke-width="3" stroke-linecap="round"/>
<path d="M194.249 159.314C195.042 159.314 197.816 160.48 200.315 161.332C200.985 161.56 201.732 161.464 204.802 161.597C207.52 161.714 212.6 161.642 215.61 161.555C220.684 161.407 222.248 160.496 223.797 159.964C225.203 159.481 227.108 158.023 228.706 157.398C230.114 156.847 231.709 156.16 232.952 155.498C234.308 154.777 236.039 152.897 238.652 151.167C240.489 149.95 241.972 148.646 242.815 147.627C244.049 146.134 246.217 144.576 247.236 143.604C249.02 141.901 251.699 138.919 252.632 137.502C253.552 136.104 254.533 135.114 255.285 134.052C256.069 132.945 256.655 131.93 258.068 130.691C259.162 129.733 260.28 128.747 262.046 127.025C264.584 124.549 266.117 123.44 267.136 122.377C268.027 121.448 269.036 120.346 269.395 119.281C269.725 118.305 267.454 118.218 265.644 117.864C261.79 117.11 256.045 117.772 254.631 118.347C252.869 119.063 251.184 119.099 249.721 119.497C248.397 119.857 246.849 120.336 245.476 120.56C244.341 120.745 242.959 121.047 241.541 121.354C239.578 121.781 238.008 122.368 236.675 122.682C235.433 122.975 233.673 123.52 232.209 123.788C231.001 124.009 230.043 124.496 228.76 125.024C227.442 125.566 225.888 125.998 224.735 126.616C223.65 127.198 222.614 127.765 221.551 128.033C221.022 128.295 220.488 128.651 219.915 128.96C219.605 129.094 219.255 129.182 218.363 129.803" stroke="#CE7936" stroke-width="3" stroke-linecap="round"/>
<path d="M116.742 175.97C116.126 176.32 114.89 177.381 113.167 178.266C111.957 178.887 110.119 179.064 108.522 179.461C107.038 179.831 104.118 180.215 102.109 180.435C100.826 180.576 99.2408 180.746 96.2425 180.966C87.7588 181.589 85.9743 180.395 84.641 179.995C83.6017 179.682 82.5197 179.244 81.4133 178.846C80.0134 178.342 78.8051 177.917 77.5222 177.343C76.4475 176.862 75.3558 176.591 74.2932 175.972C73.1892 175.33 72.1719 174.733 71.1092 174.115C70.0454 173.496 68.8128 172.966 67.6599 172.478C66.547 172.007 65.3635 171.199 63.9904 170.4C62.8113 169.715 61.824 168.721 60.7176 167.969C58.751 166.632 56.7827 164.476 55.7201 163.723C54.6133 162.94 53.5988 162.353 52.5799 161.601C51.4186 160.743 50.4148 159.434 49.6613 158.331C48.3549 156.417 47.1407 155.81 46.212 154.968C45.2833 154.125 44.1371 152.982 43.2045 151.829C42.2792 150.685 41.4785 149.707 40.4199 147.984C39.6026 146.654 38.475 145.637 37.2359 144.665C35.7589 143.506 34.4048 141.482 33.6526 140.42C32.8368 139.267 32.192 138.298 31.5738 137.236C30.9316 136.132 30.1596 135.114 29.4074 134.052C28.6239 132.945 27.5116 131.58 26.1359 130.337C25.2059 129.497 24.7628 128.216 23.9243 126.933C22.8268 125.254 20.6979 123.44 19.5915 122.554C17.9088 121.206 16.4526 119.635 15.39 118.927C14.3274 118.218 13.2687 117.337 11.8558 116.145C8.8629 113.618 7.78699 112.386 6.85435 111.277C5.84591 110.078 4.24749 109.197 2.52418 107.654C1.82388 107.027 1.50133 106.456 1.5 106.014C1.49656 104.867 3.97155 105.042 5.03419 104.554C6.20301 104.017 7.42083 103.45 8.48348 103.005C9.51687 102.573 10.7799 102.298 11.9765 101.944C13.2342 101.572 14.3194 101.502 16.0427 101.368C19.8623 101.071 26.4343 101.322 27.631 101.676C28.9083 102.054 30.3241 102.558 32.0076 103.311C33.4723 103.965 35.0151 104.416 36.0777 105.124C37.1018 105.807 38.1991 106.273 39.2617 106.981C40.3857 107.731 41.6483 108.045 43.1501 108.397C45.4427 108.934 46.4243 109.547 47.7509 110.165C49.1162 110.802 50.1389 111.404 51.2015 112.023C52.2653 112.642 53.3228 113.172 55.0462 113.88C56.3665 114.423 57.5681 115.029 58.6745 115.561C60.1457 116.268 61.4578 117.152 62.6107 117.816C63.6233 118.4 65.0822 119.009 66.5455 119.673C67.6177 120.16 68.8871 120.601 70.0399 121.309C71.128 121.978 72.1612 122.548 73.2239 122.903C74.2865 123.257 75.5203 123.61 78.3898 124.448C80.6556 125.11 81.7131 125.467 83.2162 125.821C84.3901 126.098 85.9531 126.353 87.3301 126.617C87.6406 126.706 87.9908 126.794 88.4339 126.839C88.877 126.884 89.4024 126.884 89.9436 126.884" stroke="#CE7936" stroke-width="3" stroke-linecap="round"/>
<path d="M193.749 153.314C195.07 153.051 195.805 152.711 197.528 151.916C198.688 151.381 200.135 150.419 201.818 148.779C202.88 147.745 203.855 146.789 205.048 145.286C206.081 143.983 207.214 142.984 208.056 142.012C209.062 140.851 210.133 139.8 211.195 138.828C212.35 137.771 213.317 136.616 213.983 135.6C214.944 134.133 216.06 133.257 216.812 132.151C217.773 130.738 218.713 129.543 219.202 128.48C219.756 127.273 220.396 126.093 220.837 125.031C221.347 123.804 221.988 122.734 222.738 121.361C223.331 120.278 223.755 118.929 224.199 117.867C224.674 116.73 225.347 115.48 226.055 113.977C226.632 112.753 227.294 111.59 227.869 110.217C228.323 109.131 228.621 107.876 228.975 106.679C229.353 105.402 230.032 103.11 230.831 101.373C231.476 99.9697 231.895 98.5892 232.379 97.3488C233.537 94.3822 232.866 89.7431 233 88.24C233.114 86.9667 233.662 85.5881 234.016 83.9948C234.278 82.8175 234.723 81.6081 234.901 80.1037C235.196 77.6088 235.519 75.15 235.653 73.6469C235.759 72.458 236.14 71.2603 236.624 70.0636C237.347 68.2775 238.348 65.9537 238.792 64.8008C239.235 63.6512 239.765 62.4142 239.942 61.3515C240.165 60.0206 241.707 58.4395 242.241 57.1063C242.67 56.0381 243.214 54.985 243.612 53.9223C244.051 52.7492 244.981 51.6259 245.733 50.473C246.505 49.2904 247.544 48.5268 248.607 47.7308C248.908 47.5053 249.136 47.1153 249.14 46.8473C249.171 44.7356 243.575 46.3989 241.764 46.5329C240.013 46.6625 238.624 47.1949 237.339 47.6367C235.355 48.3192 234.023 49.2273 232.74 49.9795C231.373 50.781 229.868 51.7904 228.627 52.6328C227.063 53.6949 225.623 54.709 224.513 55.3312C223.287 56.0194 222.083 57.1872 221.02 58.3361C220.118 59.3119 219.074 60.0156 218.102 61.0345C217.213 61.966 216.071 62.9342 214.257 64.1733C213.027 65.014 212.001 65.9431 210.982 66.6953C210.024 67.4023 209.082 68.0657 208.063 69.0819C207.039 70.1035 206.869 71.775 206.204 73.2383C205.717 74.3104 205.627 75.5798 205.407 76.7327C205.206 77.7846 205.097 79.0291 204.833 80.2258C204.55 81.5065 204.391 82.5686 203.816 84.5121C203.405 85.9047 203.154 87.3445 202.49 88.6274C201.948 89.6729 201.738 90.7938 201.163 91.8565C200.942 92.3858 200.676 92.9191 200.367 93.4484C200.233 93.7151 200.146 93.9778 199.525 94.5137" stroke="#CE7936" stroke-width="3" stroke-linecap="round"/>
<path d="M206.423 72.226C206.511 71.698 207.039 69.9389 207.483 68.4716C207.91 67.0644 208.896 65.6883 209.12 64.2715C209.334 62.9235 209.607 60.4825 209.827 56.8157C210.198 50.6498 209.697 46.0513 209.388 45.1691C208.816 43.5362 208.636 42.2491 208.238 40.9225C207.799 39.4576 207.31 38.094 206.912 36.5007C206.561 35.0965 205.808 33.5834 205.54 32.3868C205.211 30.9185 204.391 29.7786 204.037 28.2755C203.753 27.0738 203.064 25.7138 202.622 24.2956C201.962 22.1757 201.032 20.4974 200.544 18.9439C200.111 17.5661 199.35 16.2468 198.731 14.9639C198.161 13.7794 197.317 12.6224 196.212 11.2493C195.453 10.3058 195.019 9.08291 194.221 7.80004C193.5 6.64203 192.716 5.63362 192.142 4.57098C191.869 4.06619 191.655 3.50833 191.302 3.24168C190.443 2.59261 190.153 5.5328 189.004 6.90588C188.128 7.95324 187.325 9.07229 185.734 10.1787C184.053 11.3484 183.255 12.5216 182.106 13.8044C181.204 14.8111 179.986 15.8806 178.833 16.7257C177.859 17.4399 176.712 18.3588 175.649 18.851C174.211 19.517 174.674 16.2468 174.54 14.9639C174.414 13.7548 174.143 12.5322 174.009 10.3684C173.921 8.93939 173.257 7.75626 172.949 6.69361C172.613 5.53273 171.495 4.39719 170.783 3.24433C170.421 2.65926 169.986 2.18169 169.678 1.73991C169.516 1.50701 169.107 1.47326 168.796 1.51571C167.56 1.68399 165.929 3.49507 164.682 5.31257C163.635 6.83844 162.559 7.74565 161.63 8.58807C160.693 9.43879 159.996 10.4892 159.066 11.4616C157.733 12.8555 156.106 14.1985 154.997 15.4415C154.095 16.4528 152.572 18.0882 151.503 19.4215C150.658 20.4753 150.089 21.8081 149.6 22.9145C149.017 24.2369 148.231 25.4325 147.831 26.5854C147.785 27.1147 147.61 27.648 147.301 28.1773C147.167 28.444 147.08 28.7067 146.99 29.2426" stroke="#CE7936" stroke-width="3" stroke-linecap="round"/>
<path d="M143.275 39.0598C142.834 39.5878 142.479 40.8216 142.038 42.1934C141.373 44.2668 141.683 45.5975 141.419 46.7504" stroke="#CE7936" stroke-width="3" stroke-linecap="round"/>
<path d="M187.054 147.049C187.317 146.608 188.376 146.078 189.351 145.416C190.275 144.788 190.854 143.43 191.65 142.146C192.719 140.421 193.242 139.36 194.258 137.945C195.506 136.209 196.16 135.114 196.649 133.788C197.162 132.393 197.667 131.225 198.152 129.764C198.656 128.244 198.904 127.154 199.435 125.431C199.871 124.012 200.406 122.378 200.85 121.272C201.105 120.638 201.117 119.9 201.204 119.238C201.287 118.612 201.647 113.578 201.604 106.15C201.583 102.728 201.117 101.333 200.676 99.8693C200.353 98.795 200.146 97.7029 199.571 96.6402C199.031 95.6416 198.644 94.5189 198.199 93.236C197.819 92.1371 197.492 91.0696 196.918 90.007C196.378 89.0083 196.166 87.8857 195.811 86.559C195.462 85.2491 195.195 83.9959 194.97 82.8431C194.743 81.674 194.308 80.4564 193.998 79.1736C193.715 78.0047 193.512 76.3916 193.158 75.1485C192.851 74.0713 192.276 72.8521 191.655 71.6992C191.144 70.7506 190.949 69.5779 190.461 68.2951C190.017 67.1282 189.357 65.9535 188.472 64.8007C188.112 64.3305 188.028 63.738 187.852 63.4714C187.298 62.6347 187.41 65.8527 187.099 67.0029C186.705 68.4623 186.614 69.5673 186.48 70.9377C186.318 72.5971 185.993 73.8126 185.729 74.8752C185.444 76.0211 185.287 77.2619 184.933 78.3245C184.491 79.6498 183.961 81.4169 183.386 83.2305C183.005 84.4343 182.459 85.4871 182.191 86.5935C181.828 88.0928 180.601 89.2017 180.069 90.4846C179.526 91.7942 178.479 92.651 177.506 93.9776C176.54 95.2958 175.385 96.2754 174.543 97.6047C173.855 98.6897 172.031 100.25 170.608 101.674C169.588 102.693 168.752 103.795 167.909 105.254C167.22 106.449 166.274 107.509 165.521 108.792C164.818 109.993 164.151 110.959 163.399 112.065C162.535 113.335 162.203 114.408 161.629 115.514C161.009 116.708 160.877 117.857 160.479 118.964C159.975 120.364 159.375 121.572 158.931 122.635C158.487 123.696 157.958 124.756 157.384 125.906C156.677 127.322 156.366 128.47 156.012 129.533C155.639 130.653 155.57 131.92 155.392 133.378C155.13 134.478 154.205 137.56 154.249 139.814" stroke="#CE7936" stroke-width="3" stroke-linecap="round"/>
<path d="M164.249 163.104C162.143 163.149 158.136 163.412 157.65 163.104" stroke="#CE7936" stroke-width="3" stroke-linecap="round"/>
<path d="M90.7397 127.415C90.7397 128.468 90.9148 130.593 91.4893 132.317C91.8886 133.515 92.4166 134.573 92.9048 135.636C93.4094 136.734 94.1837 137.932 94.9385 139.085C95.6003 140.096 96.2214 141.206 97.0161 142.269C97.7278 143.221 98.2538 144.39 99.0498 145.497C100.057 146.897 100.907 147.84 101.616 148.902C102.314 149.95 103.47 150.583 104.577 151.512C105.867 152.595 107.45 153.236 108.293 154.165C109.18 155.143 110.194 156.065 111.122 156.907C112.004 157.707 113.197 158.278 114.35 158.766C115.463 159.237 116.646 159.87 117.799 160.314C118.844 160.717 119.921 161.021 120.983 161.155C122.081 161.294 123.805 161.642 125.316 161.862C126.898 162.093 128.496 162.523 129.739 162.967C130.771 163.336 131.86 163.584 132.923 164.293C134.075 165.061 136.626 165.792 138.273 166.417C139.519 166.889 140.616 167.124 146.304 167.258C150.07 167.347 154.416 167.304 154.902 166.908C155.882 166.107 156.186 164.831 156.584 163.769C157.008 162.637 157.513 161.647 157.823 160.41C158.298 158.515 158.133 154.075 157.869 151.298C157.755 150.1 157.162 148.912 156.764 147.805C156.261 146.405 155.836 145.197 155.481 144.134C155.127 143.072 154.774 142.013 154.42 140.95C154.066 139.888 153.538 138.829 153.05 137.723C152.495 136.466 152.211 135.38 151.503 134.317C150.766 133.212 149.823 132.196 149.027 131.089C147.913 129.54 146.464 128.656 145.622 127.728C144.723 126.737 143.455 126.093 142.395 125.163C140.864 123.819 139.831 123.26 138.504 122.554C136.952 121.728 136.116 120.696 135.054 119.944C133.947 119.161 132.932 118.574 131.209 116.984C130.06 115.925 128.687 115.39 127.624 114.681C126.6 113.999 125.503 113.533 124.397 112.957C122.893 112.174 122.054 110.969 120.947 109.863C119.488 108.404 118.074 107.165 116.835 105.972C115.369 104.561 113.738 102.479 112.986 101.46C112.206 100.403 111.351 99.295 110.642 98.2323C109.934 97.1697 109.053 96.111 108.298 95.0484C107.64 94.1229 107.546 92.9271 106.927 91.8644C106.248 90.6968 105.513 89.3027 105.025 88.1498C104.554 87.0369 103.921 86.0285 103.213 84.9659C102.53 83.9418 102.064 82.8445 101.576 81.7819C101.053 80.6436 100.207 79.6606 99.9387 78.5979C99.6381 77.4059 98.6147 76.4766 97.9063 75.414C97.1978 74.3513 96.492 73.2927 95.5634 72.4503C94.6256 71.5995 93.929 70.5492 92.8663 69.8407C91.6595 69.0362 90.3046 68.071 88.7113 67.4966C88.3527 67.3673 88.0917 67.275 87.9564 67.4488C87.1307 68.5092 87.5558 71.4088 87.3355 74.4668C86.8995 80.5206 87.7309 81.9477 88.1289 83.1006C88.5486 84.3164 89.0575 85.4872 89.5882 86.5499C90.0775 87.5298 90.209 89.0214 90.473 90.616C90.78 92.4698 90.9148 93.7124 91.0488 95.8762C91.0794 96.3694 91.1802 96.6311 91.2253 99.4807C91.2704 102.33 91.2704 107.759 91.2266 110.818C91.005 115.82 90.9175 117.948 90.7848 120.186C90.7397 122.074 90.7397 125.488 90.7397 129.007" stroke="#CE7936" stroke-width="3" stroke-linecap="round"/>
<path d="M113.558 103.535C113.558 100.465 113.733 94.4341 114.087 93.191C114.44 91.9528 114.794 90.539 114.841 82.6495C114.856 80.0914 114.444 78.8645 114.398 72.2963C114.382 70.0949 114.794 69.0473 115.192 68.3349C115.857 67.1453 116.121 70.6287 116.475 71.7789C116.925 73.2404 117.092 74.3433 117.624 75.406C118.243 76.6425 119.39 77.5273 120.496 78.3259C121.104 78.7643 122.744 78.8592 124.732 78.7717C126.442 78.6964 127.35 77.1823 127.928 76.2099C128.546 75.1712 128.857 74.0886 128.991 72.5417C129.057 71.7823 129.212 66.8769 129.169 59.7595C129.145 55.9354 128.241 54.7195 127.887 53.5256C127.361 51.7528 126.83 50.2992 125.855 48.4856C125.196 47.2603 124.617 45.9637 124.172 44.901C123.708 43.7907 123.115 42.1641 122.537 40.6571C122.018 39.3046 121.783 38.094 121.563 35.7591C121.18 31.7014 121.78 28.8022 122.266 28.3617C122.523 28.1289 122.664 27.7461 122.842 27.6971C123.778 27.4385 123.991 29.5026 124.479 30.609C125.062 31.9314 125.673 32.9519 126.291 34.2348C126.862 35.4193 127.705 36.4012 128.457 37.7716C129.385 39.4623 130.359 40.9967 131.375 42.4162C132.313 43.7267 133.718 44.6264 134.912 45.2048C136.625 46.0349 137.963 46.1335 139.026 46.4877C140.146 46.8611 141.587 46.9295 143.401 46.8446C144.937 46.7726 144.777 44.637 145.087 43.0052C145.824 39.1298 144.251 38.0038 143.102 36.5007C142.261 35.3997 141.508 34.5545 140.625 33.6683C139.513 32.5509 138.594 31.1954 137.221 29.6459C136.347 28.6595 135.586 27.4808 134.787 26.328C134.043 25.2535 133.638 23.9413 133.194 22.8787C132.761 21.8453 132.486 20.7574 132.132 19.4307C131.749 17.9968 131.335 16.7774 131.027 15.0992C130.572 12.6161 130.364 10.4997 130.405 8.90642C130.44 7.55931 132.216 7.57579 132.878 7.39802C133.179 7.31716 133.452 7.57048 133.588 7.87959C134.195 9.26642 134.519 10.3989 135.047 11.5929C135.848 13.4053 136.551 14.6442 137.346 15.5304C138.431 16.7399 138.674 18.6241 139.292 19.9508C139.928 21.3161 140.706 22.3387 141.855 24.062C142.818 25.506 143.981 26.8493 144.819 27.912C145.693 29.0199 146.984 30.2084 148.047 31.3613C149.024 32.4217 150.168 33.3924 151.67 34.9843C153.905 37.3535 155.034 38.5238 156.623 40.2471C157.626 41.3341 158.483 42.2384 159.72 44.0055C160.801 45.5508 161.667 46.4837 162.376 47.5901C163.145 48.7914 163.174 50.1081 163.438 51.4812C163.654 52.6001 163.88 53.6476 164.191 54.9729C164.737 57.3054 164.501 62.4512 164.721 65.9828C164.912 69.0363 165.207 70.2732 165.561 71.426C165.644 71.6947 165.738 71.9553 165.958 72.1344C166.446 72.5318 167.677 72.4913 169.046 72.36C170.053 72.2634 170.601 71.5202 171.087 71.0798C172.186 70.0824 172.105 68.5167 172.152 62.5653C172.17 60.268 171.315 59.2301 170.783 58.0362C169.976 56.2255 169.633 54.9849 169.058 53.8784C168.387 52.5866 167.866 50.7449 167.157 49.1914C166.63 48.036 166.271 47.2877 166.27 46.9772C166.265 46.0105 168.386 48.0757 169.538 48.6979C170.815 49.3871 171.925 50.2885 172.988 51.0845C174.492 52.2113 175.465 54.0881 176.129 55.2409C176.682 56.2003 176.966 57.5373 177.281 58.6902C178.23 62.1717 177.152 68.5061 176.884 69.6125C176.473 71.3108 175.91 73.0167 175.47 74.1231C174.99 75.3276 175.114 76.9913 174.85 78.3246C174.638 79.3993 174.409 80.4459 174.098 82.8272C173.617 86.5196 173.788 88.4907 173.567 89.7775C173.435 91.2368 173.257 94.2271 173.785 96.3219C173.963 96.6336 174.138 96.8963 174.318 97.4323" stroke="#CE7936" stroke-width="3" stroke-linecap="round"/>
<path d="M129.212 64.5314C128.772 63.7381 128.241 62.6794 126.434 59.591C125.333 57.7093 123.651 56.3168 122.23 54.7195C120.851 53.1692 117.824 51.8062 115.642 50.4292C113.985 49.3838 112.857 48.1765 111.617 47.2001C109.88 45.8327 108.257 44.8121 106.666 43.8397C104.967 42.8013 103.746 41.8935 101.891 40.0853C99.4472 37.7024 97.8186 35.6158 96.8461 34.861C95.8919 34.1202 94.7248 33.403 93.223 32.3868C91.1022 30.9516 89.9489 30.219 88.6673 29.3792C86.5192 27.9716 85.2632 27.1253 83.7587 26.1515C81.7573 24.856 80.9277 23.8511 79.7337 23.0989C77.7427 21.8446 75.8864 21.1076 74.8238 20.9736C73.6984 20.8317 72.5273 20.2214 71.2869 19.9574C69.6905 19.6176 68.2821 19.0752 67.0403 19.1574C65.2418 19.2766 66.3292 22.8641 66.109 24.5051C65.902 26.0478 65.6235 27.2898 65.049 29.3235C64.7007 30.5568 64.5622 31.6253 64.2079 33.1284C63.9365 34.2801 63.7662 35.3399 63.4119 36.9305C63.0415 38.5943 62.9702 39.8505 62.6611 41.1784C62.3213 42.638 59.9666 39.7709 58.64 38.886C57.4488 38.0915 56.0769 37.6482 54.9241 37.16C53.6309 36.6124 52.2721 35.966 50.9892 35.1276C49.8064 34.3546 48.5575 33.6683 47.4948 33.2239C46.4841 32.8011 45.3735 32.7821 44.3109 32.3841C43.1791 31.9602 42.1896 31.6306 41.1269 31.1463C40.8554 31.0226 40.5976 30.9248 40.4185 31.0986C39.4153 32.072 39.7963 35.4089 40.0603 37.5514C40.2495 39.0866 41.643 42.2172 42.4483 44.3624C42.8712 45.4891 43.1554 46.749 43.3331 47.8555C43.5592 49.2627 44.482 50.3734 44.8362 51.6139C45.4126 53.6321 46.074 55.7702 46.472 57.3171C46.9121 59.0278 48.0162 61.0715 48.7711 62.889C49.4262 64.4664 49.7886 66.1181 50.1428 67.1807C50.5067 68.2725 51.1153 69.3021 51.4695 70.3647C51.8591 71.5336 52.617 72.7513 53.1052 73.8578C53.7203 75.2518 54.2992 76.466 55.3579 78.6735C56.1301 80.2837 56.6872 81.5072 57.4818 82.8339C58.2176 84.0622 58.8947 85.3969 59.4731 86.77C59.9744 87.9599 60.8422 88.9364 61.5507 90.2193C62.2223 91.4356 62.7897 92.8262 63.3642 93.979C63.8855 95.0252 64.3817 96.1003 64.8673 97.2068C65.6807 99.0602 67.1199 100.611 67.9623 101.63C68.7614 102.596 69.7732 103.53 70.5719 104.592C71.5171 105.85 73.4825 107.77 74.8596 108.97C76.2767 110.206 77.2024 111.049 78.0886 111.978C79.1226 113.061 81.4371 114.753 83.041 116.046C84.1402 116.933 84.9872 117.857 86.1799 119.096C87.1269 120.08 88.3463 120.601 89.4089 121.309C89.6756 121.487 89.9383 121.662 90.2049 121.84C90.4716 122.018 90.7343 122.193 91.0049 122.373" stroke="#CE7936" stroke-width="3" stroke-linecap="round"/>
<path d="M131.07 164.826C131.07 167.193 130.895 171.985 130.892 176.351C130.891 178.169 131.775 178.886 132.172 179.328C133.004 180.254 134.954 179.859 136.988 179.818C138.402 179.79 138.409 177.832 138.763 176.77C139.117 175.707 139.295 174.648 139.515 173.323C139.56 172.006 139.648 170.931 139.78 170.139C139.825 169.61 139.825 168.822 139.825 168.01" stroke="#CE7936" stroke-width="3" stroke-linecap="round"/>
<path d="M175.249 157.314C175.249 159.161 175.82 162.167 176.174 163.23C176.529 164.293 177.057 165.351 177.809 166.37C178.554 167.379 179.62 167.745 180.726 167.965C181.034 168.026 181.387 168.01 181.742 167.835C183.314 167.061 183.69 165.362 183.914 164.299C184.479 161.623 183.96 157.137 182.858 155.854C182.284 155.279 182.278 154.534 181.749 154.314C181.482 154.181 180.519 153.494 180.249 153.314" stroke="#CE7936" stroke-width="3" stroke-linecap="round"/>
<path d="M225.792 148.11C226.408 148.023 227.995 147.495 229.369 146.786C231.029 145.931 232.155 145.547 233.218 145.149C234.665 144.607 236.045 143.334 237.021 142.586C238.268 141.631 239.935 140.336 241.44 138.61C243.645 136.083 244.626 135.29 245.424 134.317C246.235 133.33 247.014 132.371 247.9 131.398C249.082 130.101 250.463 129.187 251.833 128.258C253.472 127.33 254.708 126.268 255.771 125.56C256.037 125.382 256.3 125.207 256.836 125.027" stroke="#CE7936" stroke-width="3" stroke-linecap="round"/>
<path d="M217.567 106.188C218.538 105.13 219.069 103.896 219.864 101.862C220.415 100.451 221.101 98.8545 221.546 97.6141C222.096 96.0775 222.253 94.7843 222.651 93.7217C223.075 92.5898 223.58 91.6004 224.11 90.3175C224.539 89.2808 224.816 88.1511 225.524 86.7806C226.307 85.2661 226.763 84.1711 227.118 83.1085C227.533 81.8617 228.09 80.4565 228.488 79.3939C228.912 78.2621 229.417 77.2726 229.859 76.2537C230.344 75.1336 231.099 74.1788 231.803 73.026C232.248 71.9633 232.776 70.9047 233.308 69.8858C233.484 69.6629 233.747 69.4878 234.018 69.3074" stroke="#CE7936" stroke-width="3" stroke-linecap="round"/>
<path d="M193.422 14.1189C193.422 15.7905 193.597 18.2687 194.215 19.5528C195.047 21.2811 195.014 22.6041 195.234 23.9746C195.481 25.5114 195.545 26.7592 195.809 28.1761C196.092 29.6955 196.341 32.3205 196.561 34.3224C196.731 35.8696 196.871 37.6324 197.092 39.2761C197.274 40.6408 197.577 42.4136 197.711 44.2709C197.933 46.8287 197.845 49.9357 197.712 50.5964C197.667 50.9944 197.667 51.5197 197.667 52.061" stroke="#CE7936" stroke-width="3" stroke-linecap="round"/>
<path d="M97.3728 40.9171C97.9008 41.1798 98.9595 42.2385 99.8457 43.3449C100.923 44.6894 102.143 45.2473 102.986 46.1759C103.966 47.2569 105.418 48.0757 106.61 49.1383C107.712 50.1201 108.602 50.9943 109.53 52.057C110.665 53.3557 112.051 54.9743 113.2 56.0369C114.397 57.144 115.675 58.6889 116.782 59.928C117.821 61.0918 118.774 61.8728 119.393 62.9355C120.122 64.1892 121.162 65.3221 122.001 66.9128C122.754 68.5963 123.197 69.6576 123.418 70.3196C123.55 70.6314 123.725 70.894 123.906 71.43" stroke="#CE7936" stroke-width="3" stroke-linecap="round"/>
<path d="M40.8577 141.212C41.651 142.002 42.8848 143.594 44.0814 144.481C46.2617 146.095 48.2816 148.726 49.3005 149.918C50.1707 150.937 50.7598 152.26 51.7309 153.632C53.5225 156.163 55.2651 157.476 56.7721 158.719C57.4779 159.249 58.1014 159.695 58.6308 160.047C58.8974 160.225 59.1601 160.4 59.6961 161.111" stroke="#CE7936" stroke-width="3" stroke-linecap="round"/>
<path d="M84.9023 172.255C85.4303 172.343 86.489 172.696 87.5517 173.314C88.6815 173.971 89.9383 174.463 91.0009 174.951C92.0636 175.439 93.4725 175.614 101.763 175.617C104.356 174.911 105.593 174.203 106.612 173.541C106.834 173.319 107.01 173.057 107.19 172.786" stroke="#CE7936" stroke-width="3" stroke-linecap="round"/>
<path d="M109.047 144.396C109.222 145.189 110.103 146.072 111.43 147.265C112.676 148.385 113.818 149.166 114.881 149.921C115.834 150.598 117.002 150.939 118.549 151.337C120.181 151.757 121.863 152.706 123.59 153.194C125.102 153.621 126.989 154.473 128.72 155.007C130.322 155.502 131.595 155.714 132.745 156.025C134.289 156.442 135.575 156.686 137.032 157.746C138.743 158.538 140.088 159.251 140.574 159.824C140.797 160.135 140.972 160.485 141.152 161.111" stroke="#CE7936" stroke-width="3" stroke-linecap="round"/>
<path d="M169.542 154.213C170.336 153.422 171.57 151.48 173.427 149.576C174.685 148.286 175.905 147.41 177.144 146.037C178.059 145.023 178.999 143.87 179.888 142.808C180.707 141.828 181.302 140.686 181.834 139.58C182.532 138.128 184.04 137.237 185.193 135.998C185.46 135.73 185.722 135.555 185.945 135.333C186.168 135.112 186.343 134.849 187.054 134.048" stroke="#CE7936" stroke-width="3" stroke-linecap="round"/>
<path d="M101.884 96.3711C102.059 97.4271 102.589 99.3693 103.384 101.317C103.957 102.72 104.447 104.32 105.726 106.094C106.633 107.352 107.365 108.571 108.424 110.338C109.261 111.735 109.928 112.816 110.549 113.879C111.145 114.898 113.622 118.192 116.337 120.159C116.739 120.338 117.002 120.426 117.269 120.515C117.535 120.604 117.798 120.691 118.069 120.781" stroke="#CE7936" stroke-width="3" stroke-linecap="round"/>
<path d="M192.626 187.644C192.801 189.143 193.507 190.558 194.7 192.368C196.259 194.737 198.548 196.926 199.608 197.855C201.233 199.281 202.613 200.2 203.897 200.732C205.625 201.617 206.421 202.06 207.256 202.367C207.83 202.588 208.705 202.938 209.873 203.829" stroke="#CE7936" stroke-width="3" stroke-linecap="round"/>
<path d="M150.969 211.789C150.882 212.583 150.704 218.545 150.264 223.185C149.761 228.482 149.908 229.911 149.688 231.418C149.482 232.826 149.377 235.823 149.157 238.095C148.998 239.741 148.406 240.97 147.48 242.384C145.933 244.682 144.647 247.074 144.647 247.074C144.647 247.074 143.749 248.043 143.749 248.314" stroke="#CE7936" stroke-width="3" stroke-linecap="round"/>
<path d="M77.4731 206.748C78.0012 206.573 79.0598 205.867 80.3865 204.982C81.7694 204.06 83.3051 203.389 84.3677 202.33C85.3012 201.4 86.3988 200.385 87.6392 199.279C89.3094 197.789 90.9996 196.846 92.3263 195.697C93.7432 194.723 94.6294 193.749 95.3763 192.87C95.948 192.253 96.9112 191.29 98.1688 190.032" stroke="#CE7936" stroke-width="3" stroke-linecap="round"/>
</svg>
